<?xml version="1.0" encoding="UTF-8"?>
<svg id="_レイヤー_1" data-name="レイヤー_1" xmlns="http://www.w3.org/2000/svg" version="1.1" viewBox="0 0 45 40">
  <!-- Generator: Adobe Illustrator 30.2.1, SVG Export Plug-In . SVG Version: 2.1.1 Build 1)  -->
  <defs>
    <style>
      .st0 {
        fill: #4b4646;
      }
    </style>
  </defs>
  <path class="st0" d="M22.99,0C12.12,0,3.27,8.84,3.27,19.71c0,4.06,1.24,7.84,3.35,10.98-1.28,3.07-2.3,6.94-.26,8.61.6.49,1.35.7,2.18.7,1.96,0,4.35-1.15,6.31-2.35,2.48,1.13,5.23,1.78,8.13,1.78,10.87,0,19.71-8.84,19.71-19.71S33.86,0,22.99,0ZM22.99,36.43c-2.03,0-3.97-.38-5.77-1.05-.89-.33-1.74-.72-2.55-1.19-1,.68-1.99,1.26-2.89,1.72-1.73.88-3.1,1.31-3.5,1.09-.28-.39-.07-1.79.55-3.61.32-.94.74-1.99,1.25-3.07-.67-.81-1.26-1.69-1.77-2.62-1.3-2.37-2.03-5.09-2.03-7.98C6.27,10.5,13.77,3,22.99,3s16.72,7.5,16.72,16.72-7.5,16.72-16.72,16.72Z"/>
</svg>