<svg width="45" height="40" viewBox="0 0 45 40" fill="none" xmlns="http://www.w3.org/2000/svg">
<path d="M40.8591 3.49224C39.7485 2.38453 38.4299 1.50596 36.9788 0.906747C35.5276 0.307531 33.9723 -0.000587411 32.4017 8.40717e-07C30.8311 0.000589093 29.276 0.309872 27.8253 0.910176C26.3746 1.51048 25.0567 2.39003 23.947 3.49858L22.4984 4.96104L21.0618 3.50174L21.0525 3.49243C19.9424 2.38524 18.6246 1.50697 17.1742 0.907758C15.7239 0.30855 14.1694 0.000141912 12.5995 0.000141912C11.0297 0.000141912 9.47521 0.30855 8.02485 0.907758C6.5745 1.50697 5.25667 2.38524 4.14662 3.49243L3.50128 4.1361C1.25945 6.37215 0 9.40488 0 12.5671C0 15.7294 1.25945 18.7621 3.50128 20.9982L20.5335 37.9862L22.4569 39.9962L22.5027 39.9503L22.5525 40L24.3546 38.1035L41.5044 20.9979C43.7429 18.7601 45 15.728 45 12.5669C45 9.40571 43.7429 6.37365 41.5044 4.13582L40.8591 3.49224ZM39.3907 18.8902L22.5027 35.7349L5.61437 18.8902C3.933 17.2131 2.98842 14.9386 2.98842 12.5669C2.98842 10.1952 3.933 7.92068 5.61437 6.24364L6.25981 5.59996C7.94036 3.92376 10.2194 2.98169 12.5961 2.9808C14.9727 2.97991 17.2525 3.92027 18.9343 5.59521L22.4919 9.20825L26.0664 5.59996C26.8989 4.76957 27.8873 4.11087 28.9751 3.66146C30.0628 3.21206 31.2287 2.98075 32.4061 2.98075C33.5835 2.98075 34.7493 3.21206 35.8371 3.66146C36.9249 4.11087 37.9132 4.76957 38.7458 5.59996L39.3911 6.24354C41.07 7.92196 42.0127 10.1961 42.0127 12.5669C42.0126 14.9378 41.0697 17.2118 39.3907 18.8902Z" fill="#4B4646"/>
</svg>
