<?xml version="1.0" encoding="UTF-8"?>
<svg id="_レイヤー_1" data-name="レイヤー_1" xmlns="http://www.w3.org/2000/svg" version="1.1" viewBox="0 0 45 40">
  <!-- Generator: Adobe Illustrator 30.2.1, SVG Export Plug-In . SVG Version: 2.1.1 Build 1)  -->
  <defs>
    <style>
      .st0 {
        fill: #da3e50;
      }
    </style>
  </defs>
  <path class="st0" d="M40.86,3.49c-1.11-1.11-2.43-1.99-3.88-2.59C35.53.31,33.97,0,32.4,0c-1.57,0-3.13.31-4.58.91-1.45.6-2.77,1.48-3.88,2.59l-1.45,1.46-1.44-1.46h0c-1.11-1.12-2.43-1.99-3.88-2.59C15.72.31,14.17,0,12.6,0s-3.12.31-4.57.91c-1.45.6-2.77,1.48-3.88,2.58l-.65.64C1.26,6.37,0,9.4,0,12.57s1.26,6.2,3.5,8.43l17.03,16.99,1.92,2.01.05-.05.05.05,1.8-1.9,17.15-17.11c2.24-2.24,3.5-5.27,3.5-8.43s-1.26-6.19-3.5-8.43l-.65-.64Z"/>
</svg>