<svg width="370" height="36" viewBox="0 0 370 36" fill="none" xmlns="http://www.w3.org/2000/svg">
<path d="M99.1098 25.0499C97.7898 31.3799 93.0298 35.9999 84.5498 35.9999C73.8098 35.9999 68.7598 28.3899 68.7598 18.7699C68.7598 9.14994 74.0098 1.18994 84.8898 1.18994C93.9098 1.18994 98.2698 6.43994 99.1098 12.1399H91.8098C91.0698 9.48994 89.2598 6.88994 84.6498 6.88994C78.6198 6.88994 76.3198 12.3399 76.3198 18.5299C76.3198 24.2299 78.3298 30.2599 84.8498 30.2599C89.6498 30.2599 91.1198 27.0699 91.7598 25.0599H99.1098V25.0499Z" fill="white"/>
<path d="M136.46 18.4699C136.46 27.8999 130.82 35.9999 119.84 35.9999C108.86 35.9999 103.66 28.2899 103.66 18.5699C103.66 8.84994 109.79 1.18994 120.28 1.18994C130.18 1.18994 136.46 8.10994 136.46 18.4699ZM111.21 18.4199C111.21 25.0499 114.1 30.0599 120.08 30.0599C126.6 30.0599 128.9 24.6099 128.9 18.5699C128.9 12.1399 126.25 7.12994 119.98 7.12994C113.71 7.12994 111.2 11.8399 111.2 18.4199H111.21Z" fill="white"/>
<path d="M205.24 25.0499C203.92 31.3799 199.16 35.9999 190.68 35.9999C179.94 35.9999 174.89 28.3899 174.89 18.7699C174.89 9.14994 180.14 1.18994 191.02 1.18994C200.04 1.18994 204.4 6.43994 205.24 12.1399H197.94C197.2 9.48994 195.39 6.88994 190.78 6.88994C184.75 6.88994 182.45 12.3399 182.45 18.5299C182.45 24.2299 184.46 30.2599 190.98 30.2599C195.78 30.2599 197.25 27.0699 197.89 25.0599H205.24V25.0499Z" fill="white"/>
<path d="M211.46 1.67993H218.76V14.8399H232.39V1.67993H239.69V35.5099H232.39V20.8799H218.76V35.5099H211.46V1.67993Z" fill="white"/>
<path d="M254.5 7.66993H244.21V1.67993H272.06V7.66993H261.81V35.5099H254.51V7.66993H254.5Z" fill="white"/>
<path d="M299.85 20.9299H283.67V29.5199H301.51L300.63 35.5099H276.56V1.67993H300.53V7.66993H283.67V14.8899H299.85V20.9299Z" fill="white"/>
<path d="M335.54 25.0499C334.22 31.3799 329.46 35.9999 320.98 35.9999C310.24 35.9999 305.19 28.3899 305.19 18.7699C305.19 9.14994 310.44 1.18994 321.32 1.18994C330.34 1.18994 334.7 6.43994 335.54 12.1399H328.24C327.5 9.48994 325.69 6.88994 321.08 6.88994C315.05 6.88994 312.75 12.3399 312.75 18.5299C312.75 24.2299 314.76 30.2599 321.28 30.2599C326.08 30.2599 327.55 27.0699 328.19 25.0599H335.54V25.0499Z" fill="white"/>
<path d="M341.76 1.67993H349.06V14.8399H362.69V1.67993H369.99V35.5099H362.69V20.8799H349.06V35.5099H341.76V1.67993Z" fill="white"/>
<path d="M159.99 1.67993H150.82L139.35 35.5099H146.56C148.47 29.3699 154.31 10.2699 155.14 6.92993H155.19C156.02 9.96993 161.91 28.3399 164.31 35.5099H172.01L159.99 1.67993Z" fill="white"/>
<path d="M56.6898 0H22.2598C12.3298 0 2.54982 8.06 0.419822 18C-1.72018 27.94 4.59982 36 14.5198 36H25.4098C26.8798 36 28.3298 34.81 28.6498 33.33L30.1698 26.27C30.4898 24.8 29.5498 23.6 28.0798 23.6H15.9698C13.2098 23.6 11.2598 21.47 11.7698 18.71C12.2998 15.85 15.0898 13.51 17.9298 13.51H36.9698C38.4398 13.51 39.3798 14.7 39.0598 16.18L35.3698 33.34C35.0498 34.81 35.9898 36.01 37.4598 36.01H46.2898C47.7598 36.01 49.2098 34.82 49.5298 33.34L53.2198 16.18C53.5398 14.71 54.9898 13.51 56.4598 13.51C57.9298 13.51 59.3798 12.32 59.6998 10.84L62.0298 0H56.6998L56.6898 0Z" fill="white"/>
</svg>
